<mxfile host="app.diagrams.net" agent="Mozilla/5.0 (Windows NT 10.0; Win64; x64) AppleWebKit/537.36 (KHTML, like Gecko) Chrome/131.0.0.0 Safari/537.36" version="24.9.0">
  <diagram name="Страница — 1" id="jZWAW_47ikQb8xkOJ8k5">
    <mxGraphModel dx="1434" dy="746" grid="1" gridSize="10" guides="1" tooltips="1" connect="1" arrows="1" fold="1" page="1" pageScale="1" pageWidth="827" pageHeight="1169" math="0" shadow="0">
      <root>
        <mxCell id="0" />
        <mxCell id="1" parent="0" />
        <mxCell id="CmbAMu_F5Y379cviq5Td-1" value="Products" style="shape=table;startSize=30;container=1;collapsible=1;childLayout=tableLayout;fixedRows=1;rowLines=0;fontStyle=1;align=center;resizeLast=1;html=1;" vertex="1" parent="1">
          <mxGeometry x="60" y="60" width="180" height="337" as="geometry">
            <mxRectangle x="190" y="190" width="90" height="30" as="alternateBounds" />
          </mxGeometry>
        </mxCell>
        <mxCell id="CmbAMu_F5Y379cviq5Td-2" value="" style="shape=tableRow;horizontal=0;startSize=0;swimlaneHead=0;swimlaneBody=0;fillColor=none;collapsible=0;dropTarget=0;points=[[0,0.5],[1,0.5]];portConstraint=eastwest;top=0;left=0;right=0;bottom=1;" vertex="1" parent="CmbAMu_F5Y379cviq5Td-1">
          <mxGeometry y="30" width="180" height="29" as="geometry" />
        </mxCell>
        <mxCell id="CmbAMu_F5Y379cviq5Td-3" value="PK" style="shape=partialRectangle;connectable=0;fillColor=none;top=0;left=0;bottom=0;right=0;fontStyle=1;overflow=hidden;whiteSpace=wrap;html=1;" vertex="1" parent="CmbAMu_F5Y379cviq5Td-2">
          <mxGeometry width="30" height="29" as="geometry">
            <mxRectangle width="30" height="29" as="alternateBounds" />
          </mxGeometry>
        </mxCell>
        <mxCell id="CmbAMu_F5Y379cviq5Td-4" value="UniqueID" style="shape=partialRectangle;connectable=0;fillColor=none;top=0;left=0;bottom=0;right=0;align=left;spacingLeft=6;fontStyle=5;overflow=hidden;whiteSpace=wrap;html=1;" vertex="1" parent="CmbAMu_F5Y379cviq5Td-2">
          <mxGeometry x="30" width="150" height="29" as="geometry">
            <mxRectangle width="150" height="29" as="alternateBounds" />
          </mxGeometry>
        </mxCell>
        <mxCell id="CmbAMu_F5Y379cviq5Td-5" value="" style="shape=tableRow;horizontal=0;startSize=0;swimlaneHead=0;swimlaneBody=0;fillColor=none;collapsible=0;dropTarget=0;points=[[0,0.5],[1,0.5]];portConstraint=eastwest;top=0;left=0;right=0;bottom=0;" vertex="1" parent="CmbAMu_F5Y379cviq5Td-1">
          <mxGeometry y="59" width="180" height="30" as="geometry" />
        </mxCell>
        <mxCell id="CmbAMu_F5Y379cviq5Td-6" value="Y" style="shape=partialRectangle;connectable=0;fillColor=none;top=0;left=0;bottom=0;right=0;editable=1;overflow=hidden;whiteSpace=wrap;html=1;" vertex="1" parent="CmbAMu_F5Y379cviq5Td-5">
          <mxGeometry width="30" height="30" as="geometry">
            <mxRectangle width="30" height="30" as="alternateBounds" />
          </mxGeometry>
        </mxCell>
        <mxCell id="CmbAMu_F5Y379cviq5Td-7" value="ID" style="shape=partialRectangle;connectable=0;fillColor=none;top=0;left=0;bottom=0;right=0;align=left;spacingLeft=6;overflow=hidden;whiteSpace=wrap;html=1;" vertex="1" parent="CmbAMu_F5Y379cviq5Td-5">
          <mxGeometry x="30" width="150" height="30" as="geometry">
            <mxRectangle width="150" height="30" as="alternateBounds" />
          </mxGeometry>
        </mxCell>
        <mxCell id="CmbAMu_F5Y379cviq5Td-8" value="" style="shape=tableRow;horizontal=0;startSize=0;swimlaneHead=0;swimlaneBody=0;fillColor=none;collapsible=0;dropTarget=0;points=[[0,0.5],[1,0.5]];portConstraint=eastwest;top=0;left=0;right=0;bottom=0;" vertex="1" parent="CmbAMu_F5Y379cviq5Td-1">
          <mxGeometry y="89" width="180" height="31" as="geometry" />
        </mxCell>
        <mxCell id="CmbAMu_F5Y379cviq5Td-9" value="" style="shape=partialRectangle;connectable=0;fillColor=none;top=0;left=0;bottom=0;right=0;editable=1;overflow=hidden;whiteSpace=wrap;html=1;" vertex="1" parent="CmbAMu_F5Y379cviq5Td-8">
          <mxGeometry width="30" height="31" as="geometry">
            <mxRectangle width="30" height="31" as="alternateBounds" />
          </mxGeometry>
        </mxCell>
        <mxCell id="CmbAMu_F5Y379cviq5Td-10" value="NAME" style="shape=partialRectangle;connectable=0;fillColor=none;top=0;left=0;bottom=0;right=0;align=left;spacingLeft=6;overflow=hidden;whiteSpace=wrap;html=1;" vertex="1" parent="CmbAMu_F5Y379cviq5Td-8">
          <mxGeometry x="30" width="150" height="31" as="geometry">
            <mxRectangle width="150" height="31" as="alternateBounds" />
          </mxGeometry>
        </mxCell>
        <mxCell id="CmbAMu_F5Y379cviq5Td-11" value="" style="shape=tableRow;horizontal=0;startSize=0;swimlaneHead=0;swimlaneBody=0;fillColor=none;collapsible=0;dropTarget=0;points=[[0,0.5],[1,0.5]];portConstraint=eastwest;top=0;left=0;right=0;bottom=0;" vertex="1" parent="CmbAMu_F5Y379cviq5Td-1">
          <mxGeometry y="120" width="180" height="31" as="geometry" />
        </mxCell>
        <mxCell id="CmbAMu_F5Y379cviq5Td-12" value="" style="shape=partialRectangle;connectable=0;fillColor=none;top=0;left=0;bottom=0;right=0;editable=1;overflow=hidden;whiteSpace=wrap;html=1;" vertex="1" parent="CmbAMu_F5Y379cviq5Td-11">
          <mxGeometry width="30" height="31" as="geometry">
            <mxRectangle width="30" height="31" as="alternateBounds" />
          </mxGeometry>
        </mxCell>
        <mxCell id="CmbAMu_F5Y379cviq5Td-13" value="&lt;div&gt;CODE&lt;/div&gt;" style="shape=partialRectangle;connectable=0;fillColor=none;top=0;left=0;bottom=0;right=0;align=left;spacingLeft=6;overflow=hidden;whiteSpace=wrap;html=1;" vertex="1" parent="CmbAMu_F5Y379cviq5Td-11">
          <mxGeometry x="30" width="150" height="31" as="geometry">
            <mxRectangle width="150" height="31" as="alternateBounds" />
          </mxGeometry>
        </mxCell>
        <mxCell id="CmbAMu_F5Y379cviq5Td-31" style="shape=tableRow;horizontal=0;startSize=0;swimlaneHead=0;swimlaneBody=0;fillColor=none;collapsible=0;dropTarget=0;points=[[0,0.5],[1,0.5]];portConstraint=eastwest;top=0;left=0;right=0;bottom=0;" vertex="1" parent="CmbAMu_F5Y379cviq5Td-1">
          <mxGeometry y="151" width="180" height="31" as="geometry" />
        </mxCell>
        <mxCell id="CmbAMu_F5Y379cviq5Td-32" style="shape=partialRectangle;connectable=0;fillColor=none;top=0;left=0;bottom=0;right=0;editable=1;overflow=hidden;whiteSpace=wrap;html=1;" vertex="1" parent="CmbAMu_F5Y379cviq5Td-31">
          <mxGeometry width="30" height="31" as="geometry">
            <mxRectangle width="30" height="31" as="alternateBounds" />
          </mxGeometry>
        </mxCell>
        <mxCell id="CmbAMu_F5Y379cviq5Td-33" value="PRICE" style="shape=partialRectangle;connectable=0;fillColor=none;top=0;left=0;bottom=0;right=0;align=left;spacingLeft=6;overflow=hidden;whiteSpace=wrap;html=1;" vertex="1" parent="CmbAMu_F5Y379cviq5Td-31">
          <mxGeometry x="30" width="150" height="31" as="geometry">
            <mxRectangle width="150" height="31" as="alternateBounds" />
          </mxGeometry>
        </mxCell>
        <mxCell id="CmbAMu_F5Y379cviq5Td-34" style="shape=tableRow;horizontal=0;startSize=0;swimlaneHead=0;swimlaneBody=0;fillColor=none;collapsible=0;dropTarget=0;points=[[0,0.5],[1,0.5]];portConstraint=eastwest;top=0;left=0;right=0;bottom=0;" vertex="1" parent="CmbAMu_F5Y379cviq5Td-1">
          <mxGeometry y="182" width="180" height="31" as="geometry" />
        </mxCell>
        <mxCell id="CmbAMu_F5Y379cviq5Td-35" style="shape=partialRectangle;connectable=0;fillColor=none;top=0;left=0;bottom=0;right=0;editable=1;overflow=hidden;whiteSpace=wrap;html=1;" vertex="1" parent="CmbAMu_F5Y379cviq5Td-34">
          <mxGeometry width="30" height="31" as="geometry">
            <mxRectangle width="30" height="31" as="alternateBounds" />
          </mxGeometry>
        </mxCell>
        <mxCell id="CmbAMu_F5Y379cviq5Td-36" value="PICTURE_MAIN" style="shape=partialRectangle;connectable=0;fillColor=none;top=0;left=0;bottom=0;right=0;align=left;spacingLeft=6;overflow=hidden;whiteSpace=wrap;html=1;" vertex="1" parent="CmbAMu_F5Y379cviq5Td-34">
          <mxGeometry x="30" width="150" height="31" as="geometry">
            <mxRectangle width="150" height="31" as="alternateBounds" />
          </mxGeometry>
        </mxCell>
        <mxCell id="CmbAMu_F5Y379cviq5Td-40" style="shape=tableRow;horizontal=0;startSize=0;swimlaneHead=0;swimlaneBody=0;fillColor=none;collapsible=0;dropTarget=0;points=[[0,0.5],[1,0.5]];portConstraint=eastwest;top=0;left=0;right=0;bottom=0;" vertex="1" parent="CmbAMu_F5Y379cviq5Td-1">
          <mxGeometry y="213" width="180" height="31" as="geometry" />
        </mxCell>
        <mxCell id="CmbAMu_F5Y379cviq5Td-41" style="shape=partialRectangle;connectable=0;fillColor=none;top=0;left=0;bottom=0;right=0;editable=1;overflow=hidden;whiteSpace=wrap;html=1;" vertex="1" parent="CmbAMu_F5Y379cviq5Td-40">
          <mxGeometry width="30" height="31" as="geometry">
            <mxRectangle width="30" height="31" as="alternateBounds" />
          </mxGeometry>
        </mxCell>
        <mxCell id="CmbAMu_F5Y379cviq5Td-42" value="SORT" style="shape=partialRectangle;connectable=0;fillColor=none;top=0;left=0;bottom=0;right=0;align=left;spacingLeft=6;overflow=hidden;whiteSpace=wrap;html=1;" vertex="1" parent="CmbAMu_F5Y379cviq5Td-40">
          <mxGeometry x="30" width="150" height="31" as="geometry">
            <mxRectangle width="150" height="31" as="alternateBounds" />
          </mxGeometry>
        </mxCell>
        <mxCell id="CmbAMu_F5Y379cviq5Td-43" style="shape=tableRow;horizontal=0;startSize=0;swimlaneHead=0;swimlaneBody=0;fillColor=none;collapsible=0;dropTarget=0;points=[[0,0.5],[1,0.5]];portConstraint=eastwest;top=0;left=0;right=0;bottom=0;" vertex="1" parent="CmbAMu_F5Y379cviq5Td-1">
          <mxGeometry y="244" width="180" height="31" as="geometry" />
        </mxCell>
        <mxCell id="CmbAMu_F5Y379cviq5Td-44" style="shape=partialRectangle;connectable=0;fillColor=none;top=0;left=0;bottom=0;right=0;editable=1;overflow=hidden;whiteSpace=wrap;html=1;" vertex="1" parent="CmbAMu_F5Y379cviq5Td-43">
          <mxGeometry width="30" height="31" as="geometry">
            <mxRectangle width="30" height="31" as="alternateBounds" />
          </mxGeometry>
        </mxCell>
        <mxCell id="CmbAMu_F5Y379cviq5Td-45" value="SECTION_ID" style="shape=partialRectangle;connectable=0;fillColor=none;top=0;left=0;bottom=0;right=0;align=left;spacingLeft=6;overflow=hidden;whiteSpace=wrap;html=1;" vertex="1" parent="CmbAMu_F5Y379cviq5Td-43">
          <mxGeometry x="30" width="150" height="31" as="geometry">
            <mxRectangle width="150" height="31" as="alternateBounds" />
          </mxGeometry>
        </mxCell>
        <mxCell id="CmbAMu_F5Y379cviq5Td-46" style="shape=tableRow;horizontal=0;startSize=0;swimlaneHead=0;swimlaneBody=0;fillColor=none;collapsible=0;dropTarget=0;points=[[0,0.5],[1,0.5]];portConstraint=eastwest;top=0;left=0;right=0;bottom=0;" vertex="1" parent="CmbAMu_F5Y379cviq5Td-1">
          <mxGeometry y="275" width="180" height="31" as="geometry" />
        </mxCell>
        <mxCell id="CmbAMu_F5Y379cviq5Td-47" style="shape=partialRectangle;connectable=0;fillColor=none;top=0;left=0;bottom=0;right=0;editable=1;overflow=hidden;whiteSpace=wrap;html=1;" vertex="1" parent="CmbAMu_F5Y379cviq5Td-46">
          <mxGeometry width="30" height="31" as="geometry">
            <mxRectangle width="30" height="31" as="alternateBounds" />
          </mxGeometry>
        </mxCell>
        <mxCell id="CmbAMu_F5Y379cviq5Td-48" value="DESCRIPTION" style="shape=partialRectangle;connectable=0;fillColor=none;top=0;left=0;bottom=0;right=0;align=left;spacingLeft=6;overflow=hidden;whiteSpace=wrap;html=1;" vertex="1" parent="CmbAMu_F5Y379cviq5Td-46">
          <mxGeometry x="30" width="150" height="31" as="geometry">
            <mxRectangle width="150" height="31" as="alternateBounds" />
          </mxGeometry>
        </mxCell>
        <mxCell id="CmbAMu_F5Y379cviq5Td-134" style="shape=tableRow;horizontal=0;startSize=0;swimlaneHead=0;swimlaneBody=0;fillColor=none;collapsible=0;dropTarget=0;points=[[0,0.5],[1,0.5]];portConstraint=eastwest;top=0;left=0;right=0;bottom=0;" vertex="1" parent="CmbAMu_F5Y379cviq5Td-1">
          <mxGeometry y="306" width="180" height="31" as="geometry" />
        </mxCell>
        <mxCell id="CmbAMu_F5Y379cviq5Td-135" style="shape=partialRectangle;connectable=0;fillColor=none;top=0;left=0;bottom=0;right=0;editable=1;overflow=hidden;whiteSpace=wrap;html=1;" vertex="1" parent="CmbAMu_F5Y379cviq5Td-134">
          <mxGeometry width="30" height="31" as="geometry">
            <mxRectangle width="30" height="31" as="alternateBounds" />
          </mxGeometry>
        </mxCell>
        <mxCell id="CmbAMu_F5Y379cviq5Td-136" value="MANUFACTURER_ID" style="shape=partialRectangle;connectable=0;fillColor=none;top=0;left=0;bottom=0;right=0;align=left;spacingLeft=6;overflow=hidden;whiteSpace=wrap;html=1;" vertex="1" parent="CmbAMu_F5Y379cviq5Td-134">
          <mxGeometry x="30" width="150" height="31" as="geometry">
            <mxRectangle width="150" height="31" as="alternateBounds" />
          </mxGeometry>
        </mxCell>
        <mxCell id="CmbAMu_F5Y379cviq5Td-21" value="" style="shape=tableRow;horizontal=0;startSize=0;swimlaneHead=0;swimlaneBody=0;fillColor=none;collapsible=0;dropTarget=0;points=[[0,0.5],[1,0.5]];portConstraint=eastwest;top=0;left=0;right=0;bottom=0;" vertex="1" parent="1">
          <mxGeometry x="310" y="300" width="190" height="187" as="geometry" />
        </mxCell>
        <mxCell id="CmbAMu_F5Y379cviq5Td-22" value="" style="shape=partialRectangle;connectable=0;fillColor=none;top=0;left=0;bottom=0;right=0;editable=1;overflow=hidden;whiteSpace=wrap;html=1;" vertex="1" parent="CmbAMu_F5Y379cviq5Td-21">
          <mxGeometry width="30" height="30" as="geometry">
            <mxRectangle width="30" height="30" as="alternateBounds" />
          </mxGeometry>
        </mxCell>
        <mxCell id="CmbAMu_F5Y379cviq5Td-80" value="Pictures" style="shape=table;startSize=30;container=1;collapsible=1;childLayout=tableLayout;fixedRows=1;rowLines=0;fontStyle=1;align=center;resizeLast=1;html=1;" vertex="1" parent="1">
          <mxGeometry x="390" y="60" width="180" height="151" as="geometry">
            <mxRectangle x="190" y="190" width="90" height="30" as="alternateBounds" />
          </mxGeometry>
        </mxCell>
        <mxCell id="CmbAMu_F5Y379cviq5Td-81" value="" style="shape=tableRow;horizontal=0;startSize=0;swimlaneHead=0;swimlaneBody=0;fillColor=none;collapsible=0;dropTarget=0;points=[[0,0.5],[1,0.5]];portConstraint=eastwest;top=0;left=0;right=0;bottom=1;" vertex="1" parent="CmbAMu_F5Y379cviq5Td-80">
          <mxGeometry y="30" width="180" height="29" as="geometry" />
        </mxCell>
        <mxCell id="CmbAMu_F5Y379cviq5Td-82" value="PK" style="shape=partialRectangle;connectable=0;fillColor=none;top=0;left=0;bottom=0;right=0;fontStyle=1;overflow=hidden;whiteSpace=wrap;html=1;" vertex="1" parent="CmbAMu_F5Y379cviq5Td-81">
          <mxGeometry width="30" height="29" as="geometry">
            <mxRectangle width="30" height="29" as="alternateBounds" />
          </mxGeometry>
        </mxCell>
        <mxCell id="CmbAMu_F5Y379cviq5Td-83" value="UniqueID" style="shape=partialRectangle;connectable=0;fillColor=none;top=0;left=0;bottom=0;right=0;align=left;spacingLeft=6;fontStyle=5;overflow=hidden;whiteSpace=wrap;html=1;" vertex="1" parent="CmbAMu_F5Y379cviq5Td-81">
          <mxGeometry x="30" width="150" height="29" as="geometry">
            <mxRectangle width="150" height="29" as="alternateBounds" />
          </mxGeometry>
        </mxCell>
        <mxCell id="CmbAMu_F5Y379cviq5Td-84" value="" style="shape=tableRow;horizontal=0;startSize=0;swimlaneHead=0;swimlaneBody=0;fillColor=none;collapsible=0;dropTarget=0;points=[[0,0.5],[1,0.5]];portConstraint=eastwest;top=0;left=0;right=0;bottom=0;" vertex="1" parent="CmbAMu_F5Y379cviq5Td-80">
          <mxGeometry y="59" width="180" height="30" as="geometry" />
        </mxCell>
        <mxCell id="CmbAMu_F5Y379cviq5Td-85" value="Y" style="shape=partialRectangle;connectable=0;fillColor=none;top=0;left=0;bottom=0;right=0;editable=1;overflow=hidden;whiteSpace=wrap;html=1;" vertex="1" parent="CmbAMu_F5Y379cviq5Td-84">
          <mxGeometry width="30" height="30" as="geometry">
            <mxRectangle width="30" height="30" as="alternateBounds" />
          </mxGeometry>
        </mxCell>
        <mxCell id="CmbAMu_F5Y379cviq5Td-86" value="ID" style="shape=partialRectangle;connectable=0;fillColor=none;top=0;left=0;bottom=0;right=0;align=left;spacingLeft=6;overflow=hidden;whiteSpace=wrap;html=1;" vertex="1" parent="CmbAMu_F5Y379cviq5Td-84">
          <mxGeometry x="30" width="150" height="30" as="geometry">
            <mxRectangle width="150" height="30" as="alternateBounds" />
          </mxGeometry>
        </mxCell>
        <mxCell id="CmbAMu_F5Y379cviq5Td-87" value="" style="shape=tableRow;horizontal=0;startSize=0;swimlaneHead=0;swimlaneBody=0;fillColor=none;collapsible=0;dropTarget=0;points=[[0,0.5],[1,0.5]];portConstraint=eastwest;top=0;left=0;right=0;bottom=0;" vertex="1" parent="CmbAMu_F5Y379cviq5Td-80">
          <mxGeometry y="89" width="180" height="31" as="geometry" />
        </mxCell>
        <mxCell id="CmbAMu_F5Y379cviq5Td-88" value="" style="shape=partialRectangle;connectable=0;fillColor=none;top=0;left=0;bottom=0;right=0;editable=1;overflow=hidden;whiteSpace=wrap;html=1;" vertex="1" parent="CmbAMu_F5Y379cviq5Td-87">
          <mxGeometry width="30" height="31" as="geometry">
            <mxRectangle width="30" height="31" as="alternateBounds" />
          </mxGeometry>
        </mxCell>
        <mxCell id="CmbAMu_F5Y379cviq5Td-89" value="PRODUCT_ID" style="shape=partialRectangle;connectable=0;fillColor=none;top=0;left=0;bottom=0;right=0;align=left;spacingLeft=6;overflow=hidden;whiteSpace=wrap;html=1;" vertex="1" parent="CmbAMu_F5Y379cviq5Td-87">
          <mxGeometry x="30" width="150" height="31" as="geometry">
            <mxRectangle width="150" height="31" as="alternateBounds" />
          </mxGeometry>
        </mxCell>
        <mxCell id="CmbAMu_F5Y379cviq5Td-108" style="shape=tableRow;horizontal=0;startSize=0;swimlaneHead=0;swimlaneBody=0;fillColor=none;collapsible=0;dropTarget=0;points=[[0,0.5],[1,0.5]];portConstraint=eastwest;top=0;left=0;right=0;bottom=0;" vertex="1" parent="CmbAMu_F5Y379cviq5Td-80">
          <mxGeometry y="120" width="180" height="31" as="geometry" />
        </mxCell>
        <mxCell id="CmbAMu_F5Y379cviq5Td-109" style="shape=partialRectangle;connectable=0;fillColor=none;top=0;left=0;bottom=0;right=0;editable=1;overflow=hidden;whiteSpace=wrap;html=1;" vertex="1" parent="CmbAMu_F5Y379cviq5Td-108">
          <mxGeometry width="30" height="31" as="geometry">
            <mxRectangle width="30" height="31" as="alternateBounds" />
          </mxGeometry>
        </mxCell>
        <mxCell id="CmbAMu_F5Y379cviq5Td-110" value="FILE_LINK" style="shape=partialRectangle;connectable=0;fillColor=none;top=0;left=0;bottom=0;right=0;align=left;spacingLeft=6;overflow=hidden;whiteSpace=wrap;html=1;" vertex="1" parent="CmbAMu_F5Y379cviq5Td-108">
          <mxGeometry x="30" width="150" height="31" as="geometry">
            <mxRectangle width="150" height="31" as="alternateBounds" />
          </mxGeometry>
        </mxCell>
        <mxCell id="CmbAMu_F5Y379cviq5Td-114" value="Sections" style="shape=table;startSize=30;container=1;collapsible=1;childLayout=tableLayout;fixedRows=1;rowLines=0;fontStyle=1;align=center;resizeLast=1;html=1;" vertex="1" parent="1">
          <mxGeometry x="310" y="340" width="180" height="180" as="geometry" />
        </mxCell>
        <mxCell id="CmbAMu_F5Y379cviq5Td-115" value="" style="shape=tableRow;horizontal=0;startSize=0;swimlaneHead=0;swimlaneBody=0;fillColor=none;collapsible=0;dropTarget=0;points=[[0,0.5],[1,0.5]];portConstraint=eastwest;top=0;left=0;right=0;bottom=1;" vertex="1" parent="CmbAMu_F5Y379cviq5Td-114">
          <mxGeometry y="30" width="180" height="30" as="geometry" />
        </mxCell>
        <mxCell id="CmbAMu_F5Y379cviq5Td-116" value="PK" style="shape=partialRectangle;connectable=0;fillColor=none;top=0;left=0;bottom=0;right=0;fontStyle=1;overflow=hidden;whiteSpace=wrap;html=1;" vertex="1" parent="CmbAMu_F5Y379cviq5Td-115">
          <mxGeometry width="30" height="30" as="geometry">
            <mxRectangle width="30" height="30" as="alternateBounds" />
          </mxGeometry>
        </mxCell>
        <mxCell id="CmbAMu_F5Y379cviq5Td-117" value="UniqueID" style="shape=partialRectangle;connectable=0;fillColor=none;top=0;left=0;bottom=0;right=0;align=left;spacingLeft=6;fontStyle=5;overflow=hidden;whiteSpace=wrap;html=1;" vertex="1" parent="CmbAMu_F5Y379cviq5Td-115">
          <mxGeometry x="30" width="150" height="30" as="geometry">
            <mxRectangle width="150" height="30" as="alternateBounds" />
          </mxGeometry>
        </mxCell>
        <mxCell id="CmbAMu_F5Y379cviq5Td-118" value="" style="shape=tableRow;horizontal=0;startSize=0;swimlaneHead=0;swimlaneBody=0;fillColor=none;collapsible=0;dropTarget=0;points=[[0,0.5],[1,0.5]];portConstraint=eastwest;top=0;left=0;right=0;bottom=0;" vertex="1" parent="CmbAMu_F5Y379cviq5Td-114">
          <mxGeometry y="60" width="180" height="30" as="geometry" />
        </mxCell>
        <mxCell id="CmbAMu_F5Y379cviq5Td-119" value="Y" style="shape=partialRectangle;connectable=0;fillColor=none;top=0;left=0;bottom=0;right=0;editable=1;overflow=hidden;whiteSpace=wrap;html=1;" vertex="1" parent="CmbAMu_F5Y379cviq5Td-118">
          <mxGeometry width="30" height="30" as="geometry">
            <mxRectangle width="30" height="30" as="alternateBounds" />
          </mxGeometry>
        </mxCell>
        <mxCell id="CmbAMu_F5Y379cviq5Td-120" value="ID" style="shape=partialRectangle;connectable=0;fillColor=none;top=0;left=0;bottom=0;right=0;align=left;spacingLeft=6;overflow=hidden;whiteSpace=wrap;html=1;" vertex="1" parent="CmbAMu_F5Y379cviq5Td-118">
          <mxGeometry x="30" width="150" height="30" as="geometry">
            <mxRectangle width="150" height="30" as="alternateBounds" />
          </mxGeometry>
        </mxCell>
        <mxCell id="CmbAMu_F5Y379cviq5Td-121" value="" style="shape=tableRow;horizontal=0;startSize=0;swimlaneHead=0;swimlaneBody=0;fillColor=none;collapsible=0;dropTarget=0;points=[[0,0.5],[1,0.5]];portConstraint=eastwest;top=0;left=0;right=0;bottom=0;" vertex="1" parent="CmbAMu_F5Y379cviq5Td-114">
          <mxGeometry y="90" width="180" height="30" as="geometry" />
        </mxCell>
        <mxCell id="CmbAMu_F5Y379cviq5Td-122" value="" style="shape=partialRectangle;connectable=0;fillColor=none;top=0;left=0;bottom=0;right=0;editable=1;overflow=hidden;whiteSpace=wrap;html=1;" vertex="1" parent="CmbAMu_F5Y379cviq5Td-121">
          <mxGeometry width="30" height="30" as="geometry">
            <mxRectangle width="30" height="30" as="alternateBounds" />
          </mxGeometry>
        </mxCell>
        <mxCell id="CmbAMu_F5Y379cviq5Td-123" value="PARENT_ID" style="shape=partialRectangle;connectable=0;fillColor=none;top=0;left=0;bottom=0;right=0;align=left;spacingLeft=6;overflow=hidden;whiteSpace=wrap;html=1;" vertex="1" parent="CmbAMu_F5Y379cviq5Td-121">
          <mxGeometry x="30" width="150" height="30" as="geometry">
            <mxRectangle width="150" height="30" as="alternateBounds" />
          </mxGeometry>
        </mxCell>
        <mxCell id="CmbAMu_F5Y379cviq5Td-124" value="" style="shape=tableRow;horizontal=0;startSize=0;swimlaneHead=0;swimlaneBody=0;fillColor=none;collapsible=0;dropTarget=0;points=[[0,0.5],[1,0.5]];portConstraint=eastwest;top=0;left=0;right=0;bottom=0;" vertex="1" parent="CmbAMu_F5Y379cviq5Td-114">
          <mxGeometry y="120" width="180" height="30" as="geometry" />
        </mxCell>
        <mxCell id="CmbAMu_F5Y379cviq5Td-125" value="" style="shape=partialRectangle;connectable=0;fillColor=none;top=0;left=0;bottom=0;right=0;editable=1;overflow=hidden;whiteSpace=wrap;html=1;" vertex="1" parent="CmbAMu_F5Y379cviq5Td-124">
          <mxGeometry width="30" height="30" as="geometry">
            <mxRectangle width="30" height="30" as="alternateBounds" />
          </mxGeometry>
        </mxCell>
        <mxCell id="CmbAMu_F5Y379cviq5Td-126" value="SECTION_NAME" style="shape=partialRectangle;connectable=0;fillColor=none;top=0;left=0;bottom=0;right=0;align=left;spacingLeft=6;overflow=hidden;whiteSpace=wrap;html=1;" vertex="1" parent="CmbAMu_F5Y379cviq5Td-124">
          <mxGeometry x="30" width="150" height="30" as="geometry">
            <mxRectangle width="150" height="30" as="alternateBounds" />
          </mxGeometry>
        </mxCell>
        <mxCell id="CmbAMu_F5Y379cviq5Td-128" style="shape=tableRow;horizontal=0;startSize=0;swimlaneHead=0;swimlaneBody=0;fillColor=none;collapsible=0;dropTarget=0;points=[[0,0.5],[1,0.5]];portConstraint=eastwest;top=0;left=0;right=0;bottom=0;" vertex="1" parent="CmbAMu_F5Y379cviq5Td-114">
          <mxGeometry y="150" width="180" height="30" as="geometry" />
        </mxCell>
        <mxCell id="CmbAMu_F5Y379cviq5Td-129" style="shape=partialRectangle;connectable=0;fillColor=none;top=0;left=0;bottom=0;right=0;editable=1;overflow=hidden;whiteSpace=wrap;html=1;" vertex="1" parent="CmbAMu_F5Y379cviq5Td-128">
          <mxGeometry width="30" height="30" as="geometry">
            <mxRectangle width="30" height="30" as="alternateBounds" />
          </mxGeometry>
        </mxCell>
        <mxCell id="CmbAMu_F5Y379cviq5Td-130" value="DEPTH" style="shape=partialRectangle;connectable=0;fillColor=none;top=0;left=0;bottom=0;right=0;align=left;spacingLeft=6;overflow=hidden;whiteSpace=wrap;html=1;" vertex="1" parent="CmbAMu_F5Y379cviq5Td-128">
          <mxGeometry x="30" width="150" height="30" as="geometry">
            <mxRectangle width="150" height="30" as="alternateBounds" />
          </mxGeometry>
        </mxCell>
        <mxCell id="CmbAMu_F5Y379cviq5Td-131" style="edgeStyle=orthogonalEdgeStyle;rounded=0;orthogonalLoop=1;jettySize=auto;html=1;exitX=1;exitY=0.5;exitDx=0;exitDy=0;" edge="1" parent="1" source="CmbAMu_F5Y379cviq5Td-34" target="CmbAMu_F5Y379cviq5Td-84">
          <mxGeometry relative="1" as="geometry" />
        </mxCell>
        <mxCell id="CmbAMu_F5Y379cviq5Td-132" style="edgeStyle=orthogonalEdgeStyle;rounded=0;orthogonalLoop=1;jettySize=auto;html=1;exitX=0;exitY=0.5;exitDx=0;exitDy=0;entryX=1;entryY=0.5;entryDx=0;entryDy=0;" edge="1" parent="1" source="CmbAMu_F5Y379cviq5Td-87" target="CmbAMu_F5Y379cviq5Td-5">
          <mxGeometry relative="1" as="geometry" />
        </mxCell>
        <mxCell id="CmbAMu_F5Y379cviq5Td-133" style="edgeStyle=orthogonalEdgeStyle;rounded=0;orthogonalLoop=1;jettySize=auto;html=1;entryX=0;entryY=0.5;entryDx=0;entryDy=0;" edge="1" parent="1" source="CmbAMu_F5Y379cviq5Td-43" target="CmbAMu_F5Y379cviq5Td-118">
          <mxGeometry relative="1" as="geometry" />
        </mxCell>
        <mxCell id="CmbAMu_F5Y379cviq5Td-137" value="Manufacturers" style="shape=table;startSize=30;container=1;collapsible=1;childLayout=tableLayout;fixedRows=1;rowLines=0;fontStyle=1;align=center;resizeLast=1;html=1;" vertex="1" parent="1">
          <mxGeometry x="540" y="340" width="180" height="180" as="geometry" />
        </mxCell>
        <mxCell id="CmbAMu_F5Y379cviq5Td-138" value="" style="shape=tableRow;horizontal=0;startSize=0;swimlaneHead=0;swimlaneBody=0;fillColor=none;collapsible=0;dropTarget=0;points=[[0,0.5],[1,0.5]];portConstraint=eastwest;top=0;left=0;right=0;bottom=1;" vertex="1" parent="CmbAMu_F5Y379cviq5Td-137">
          <mxGeometry y="30" width="180" height="30" as="geometry" />
        </mxCell>
        <mxCell id="CmbAMu_F5Y379cviq5Td-139" value="PK" style="shape=partialRectangle;connectable=0;fillColor=none;top=0;left=0;bottom=0;right=0;fontStyle=1;overflow=hidden;whiteSpace=wrap;html=1;" vertex="1" parent="CmbAMu_F5Y379cviq5Td-138">
          <mxGeometry width="30" height="30" as="geometry">
            <mxRectangle width="30" height="30" as="alternateBounds" />
          </mxGeometry>
        </mxCell>
        <mxCell id="CmbAMu_F5Y379cviq5Td-140" value="UniqueID" style="shape=partialRectangle;connectable=0;fillColor=none;top=0;left=0;bottom=0;right=0;align=left;spacingLeft=6;fontStyle=5;overflow=hidden;whiteSpace=wrap;html=1;" vertex="1" parent="CmbAMu_F5Y379cviq5Td-138">
          <mxGeometry x="30" width="150" height="30" as="geometry">
            <mxRectangle width="150" height="30" as="alternateBounds" />
          </mxGeometry>
        </mxCell>
        <mxCell id="CmbAMu_F5Y379cviq5Td-141" value="" style="shape=tableRow;horizontal=0;startSize=0;swimlaneHead=0;swimlaneBody=0;fillColor=none;collapsible=0;dropTarget=0;points=[[0,0.5],[1,0.5]];portConstraint=eastwest;top=0;left=0;right=0;bottom=0;" vertex="1" parent="CmbAMu_F5Y379cviq5Td-137">
          <mxGeometry y="60" width="180" height="30" as="geometry" />
        </mxCell>
        <mxCell id="CmbAMu_F5Y379cviq5Td-142" value="Y" style="shape=partialRectangle;connectable=0;fillColor=none;top=0;left=0;bottom=0;right=0;editable=1;overflow=hidden;whiteSpace=wrap;html=1;" vertex="1" parent="CmbAMu_F5Y379cviq5Td-141">
          <mxGeometry width="30" height="30" as="geometry">
            <mxRectangle width="30" height="30" as="alternateBounds" />
          </mxGeometry>
        </mxCell>
        <mxCell id="CmbAMu_F5Y379cviq5Td-143" value="ID" style="shape=partialRectangle;connectable=0;fillColor=none;top=0;left=0;bottom=0;right=0;align=left;spacingLeft=6;overflow=hidden;whiteSpace=wrap;html=1;" vertex="1" parent="CmbAMu_F5Y379cviq5Td-141">
          <mxGeometry x="30" width="150" height="30" as="geometry">
            <mxRectangle width="150" height="30" as="alternateBounds" />
          </mxGeometry>
        </mxCell>
        <mxCell id="CmbAMu_F5Y379cviq5Td-144" value="" style="shape=tableRow;horizontal=0;startSize=0;swimlaneHead=0;swimlaneBody=0;fillColor=none;collapsible=0;dropTarget=0;points=[[0,0.5],[1,0.5]];portConstraint=eastwest;top=0;left=0;right=0;bottom=0;" vertex="1" parent="CmbAMu_F5Y379cviq5Td-137">
          <mxGeometry y="90" width="180" height="30" as="geometry" />
        </mxCell>
        <mxCell id="CmbAMu_F5Y379cviq5Td-145" value="" style="shape=partialRectangle;connectable=0;fillColor=none;top=0;left=0;bottom=0;right=0;editable=1;overflow=hidden;whiteSpace=wrap;html=1;" vertex="1" parent="CmbAMu_F5Y379cviq5Td-144">
          <mxGeometry width="30" height="30" as="geometry">
            <mxRectangle width="30" height="30" as="alternateBounds" />
          </mxGeometry>
        </mxCell>
        <mxCell id="CmbAMu_F5Y379cviq5Td-146" value="NAME" style="shape=partialRectangle;connectable=0;fillColor=none;top=0;left=0;bottom=0;right=0;align=left;spacingLeft=6;overflow=hidden;whiteSpace=wrap;html=1;" vertex="1" parent="CmbAMu_F5Y379cviq5Td-144">
          <mxGeometry x="30" width="150" height="30" as="geometry">
            <mxRectangle width="150" height="30" as="alternateBounds" />
          </mxGeometry>
        </mxCell>
        <mxCell id="CmbAMu_F5Y379cviq5Td-147" value="" style="shape=tableRow;horizontal=0;startSize=0;swimlaneHead=0;swimlaneBody=0;fillColor=none;collapsible=0;dropTarget=0;points=[[0,0.5],[1,0.5]];portConstraint=eastwest;top=0;left=0;right=0;bottom=0;" vertex="1" parent="CmbAMu_F5Y379cviq5Td-137">
          <mxGeometry y="120" width="180" height="30" as="geometry" />
        </mxCell>
        <mxCell id="CmbAMu_F5Y379cviq5Td-148" value="" style="shape=partialRectangle;connectable=0;fillColor=none;top=0;left=0;bottom=0;right=0;editable=1;overflow=hidden;whiteSpace=wrap;html=1;" vertex="1" parent="CmbAMu_F5Y379cviq5Td-147">
          <mxGeometry width="30" height="30" as="geometry">
            <mxRectangle width="30" height="30" as="alternateBounds" />
          </mxGeometry>
        </mxCell>
        <mxCell id="CmbAMu_F5Y379cviq5Td-149" value="BIO" style="shape=partialRectangle;connectable=0;fillColor=none;top=0;left=0;bottom=0;right=0;align=left;spacingLeft=6;overflow=hidden;whiteSpace=wrap;html=1;" vertex="1" parent="CmbAMu_F5Y379cviq5Td-147">
          <mxGeometry x="30" width="150" height="30" as="geometry">
            <mxRectangle width="150" height="30" as="alternateBounds" />
          </mxGeometry>
        </mxCell>
        <mxCell id="CmbAMu_F5Y379cviq5Td-150" style="shape=tableRow;horizontal=0;startSize=0;swimlaneHead=0;swimlaneBody=0;fillColor=none;collapsible=0;dropTarget=0;points=[[0,0.5],[1,0.5]];portConstraint=eastwest;top=0;left=0;right=0;bottom=0;" vertex="1" parent="CmbAMu_F5Y379cviq5Td-137">
          <mxGeometry y="150" width="180" height="30" as="geometry" />
        </mxCell>
        <mxCell id="CmbAMu_F5Y379cviq5Td-151" style="shape=partialRectangle;connectable=0;fillColor=none;top=0;left=0;bottom=0;right=0;editable=1;overflow=hidden;whiteSpace=wrap;html=1;" vertex="1" parent="CmbAMu_F5Y379cviq5Td-150">
          <mxGeometry width="30" height="30" as="geometry">
            <mxRectangle width="30" height="30" as="alternateBounds" />
          </mxGeometry>
        </mxCell>
        <mxCell id="CmbAMu_F5Y379cviq5Td-152" value="PICTURE_MAIN" style="shape=partialRectangle;connectable=0;fillColor=none;top=0;left=0;bottom=0;right=0;align=left;spacingLeft=6;overflow=hidden;whiteSpace=wrap;html=1;" vertex="1" parent="CmbAMu_F5Y379cviq5Td-150">
          <mxGeometry x="30" width="150" height="30" as="geometry">
            <mxRectangle width="150" height="30" as="alternateBounds" />
          </mxGeometry>
        </mxCell>
        <mxCell id="CmbAMu_F5Y379cviq5Td-153" style="edgeStyle=orthogonalEdgeStyle;rounded=0;orthogonalLoop=1;jettySize=auto;html=1;exitX=1;exitY=0.5;exitDx=0;exitDy=0;entryX=1;entryY=0.5;entryDx=0;entryDy=0;" edge="1" parent="1" source="CmbAMu_F5Y379cviq5Td-150" target="CmbAMu_F5Y379cviq5Td-84">
          <mxGeometry relative="1" as="geometry" />
        </mxCell>
        <mxCell id="CmbAMu_F5Y379cviq5Td-154" value="Properties" style="shape=table;startSize=30;container=1;collapsible=1;childLayout=tableLayout;fixedRows=1;rowLines=0;fontStyle=1;align=center;resizeLast=1;html=1;" vertex="1" parent="1">
          <mxGeometry x="60" y="470" width="180" height="150" as="geometry" />
        </mxCell>
        <mxCell id="CmbAMu_F5Y379cviq5Td-155" value="" style="shape=tableRow;horizontal=0;startSize=0;swimlaneHead=0;swimlaneBody=0;fillColor=none;collapsible=0;dropTarget=0;points=[[0,0.5],[1,0.5]];portConstraint=eastwest;top=0;left=0;right=0;bottom=1;" vertex="1" parent="CmbAMu_F5Y379cviq5Td-154">
          <mxGeometry y="30" width="180" height="30" as="geometry" />
        </mxCell>
        <mxCell id="CmbAMu_F5Y379cviq5Td-156" value="PK" style="shape=partialRectangle;connectable=0;fillColor=none;top=0;left=0;bottom=0;right=0;fontStyle=1;overflow=hidden;whiteSpace=wrap;html=1;" vertex="1" parent="CmbAMu_F5Y379cviq5Td-155">
          <mxGeometry width="30" height="30" as="geometry">
            <mxRectangle width="30" height="30" as="alternateBounds" />
          </mxGeometry>
        </mxCell>
        <mxCell id="CmbAMu_F5Y379cviq5Td-157" value="UniqueID" style="shape=partialRectangle;connectable=0;fillColor=none;top=0;left=0;bottom=0;right=0;align=left;spacingLeft=6;fontStyle=5;overflow=hidden;whiteSpace=wrap;html=1;" vertex="1" parent="CmbAMu_F5Y379cviq5Td-155">
          <mxGeometry x="30" width="150" height="30" as="geometry">
            <mxRectangle width="150" height="30" as="alternateBounds" />
          </mxGeometry>
        </mxCell>
        <mxCell id="CmbAMu_F5Y379cviq5Td-158" value="" style="shape=tableRow;horizontal=0;startSize=0;swimlaneHead=0;swimlaneBody=0;fillColor=none;collapsible=0;dropTarget=0;points=[[0,0.5],[1,0.5]];portConstraint=eastwest;top=0;left=0;right=0;bottom=0;" vertex="1" parent="CmbAMu_F5Y379cviq5Td-154">
          <mxGeometry y="60" width="180" height="30" as="geometry" />
        </mxCell>
        <mxCell id="CmbAMu_F5Y379cviq5Td-159" value="Y" style="shape=partialRectangle;connectable=0;fillColor=none;top=0;left=0;bottom=0;right=0;editable=1;overflow=hidden;whiteSpace=wrap;html=1;" vertex="1" parent="CmbAMu_F5Y379cviq5Td-158">
          <mxGeometry width="30" height="30" as="geometry">
            <mxRectangle width="30" height="30" as="alternateBounds" />
          </mxGeometry>
        </mxCell>
        <mxCell id="CmbAMu_F5Y379cviq5Td-160" value="ID" style="shape=partialRectangle;connectable=0;fillColor=none;top=0;left=0;bottom=0;right=0;align=left;spacingLeft=6;overflow=hidden;whiteSpace=wrap;html=1;" vertex="1" parent="CmbAMu_F5Y379cviq5Td-158">
          <mxGeometry x="30" width="150" height="30" as="geometry">
            <mxRectangle width="150" height="30" as="alternateBounds" />
          </mxGeometry>
        </mxCell>
        <mxCell id="CmbAMu_F5Y379cviq5Td-161" value="" style="shape=tableRow;horizontal=0;startSize=0;swimlaneHead=0;swimlaneBody=0;fillColor=none;collapsible=0;dropTarget=0;points=[[0,0.5],[1,0.5]];portConstraint=eastwest;top=0;left=0;right=0;bottom=0;" vertex="1" parent="CmbAMu_F5Y379cviq5Td-154">
          <mxGeometry y="90" width="180" height="30" as="geometry" />
        </mxCell>
        <mxCell id="CmbAMu_F5Y379cviq5Td-162" value="" style="shape=partialRectangle;connectable=0;fillColor=none;top=0;left=0;bottom=0;right=0;editable=1;overflow=hidden;whiteSpace=wrap;html=1;" vertex="1" parent="CmbAMu_F5Y379cviq5Td-161">
          <mxGeometry width="30" height="30" as="geometry">
            <mxRectangle width="30" height="30" as="alternateBounds" />
          </mxGeometry>
        </mxCell>
        <mxCell id="CmbAMu_F5Y379cviq5Td-163" value="NAME" style="shape=partialRectangle;connectable=0;fillColor=none;top=0;left=0;bottom=0;right=0;align=left;spacingLeft=6;overflow=hidden;whiteSpace=wrap;html=1;" vertex="1" parent="CmbAMu_F5Y379cviq5Td-161">
          <mxGeometry x="30" width="150" height="30" as="geometry">
            <mxRectangle width="150" height="30" as="alternateBounds" />
          </mxGeometry>
        </mxCell>
        <mxCell id="CmbAMu_F5Y379cviq5Td-164" value="" style="shape=tableRow;horizontal=0;startSize=0;swimlaneHead=0;swimlaneBody=0;fillColor=none;collapsible=0;dropTarget=0;points=[[0,0.5],[1,0.5]];portConstraint=eastwest;top=0;left=0;right=0;bottom=0;" vertex="1" parent="CmbAMu_F5Y379cviq5Td-154">
          <mxGeometry y="120" width="180" height="30" as="geometry" />
        </mxCell>
        <mxCell id="CmbAMu_F5Y379cviq5Td-165" value="" style="shape=partialRectangle;connectable=0;fillColor=none;top=0;left=0;bottom=0;right=0;editable=1;overflow=hidden;whiteSpace=wrap;html=1;" vertex="1" parent="CmbAMu_F5Y379cviq5Td-164">
          <mxGeometry width="30" height="30" as="geometry">
            <mxRectangle width="30" height="30" as="alternateBounds" />
          </mxGeometry>
        </mxCell>
        <mxCell id="CmbAMu_F5Y379cviq5Td-166" value="MULTIPLE" style="shape=partialRectangle;connectable=0;fillColor=none;top=0;left=0;bottom=0;right=0;align=left;spacingLeft=6;overflow=hidden;whiteSpace=wrap;html=1;" vertex="1" parent="CmbAMu_F5Y379cviq5Td-164">
          <mxGeometry x="30" width="150" height="30" as="geometry">
            <mxRectangle width="150" height="30" as="alternateBounds" />
          </mxGeometry>
        </mxCell>
        <mxCell id="CmbAMu_F5Y379cviq5Td-167" value="Table" style="shape=table;startSize=30;container=1;collapsible=1;childLayout=tableLayout;fixedRows=1;rowLines=0;fontStyle=1;align=center;resizeLast=1;html=1;" vertex="1" parent="1">
          <mxGeometry x="290" y="610" width="180" height="150" as="geometry" />
        </mxCell>
        <mxCell id="CmbAMu_F5Y379cviq5Td-168" value="" style="shape=tableRow;horizontal=0;startSize=0;swimlaneHead=0;swimlaneBody=0;fillColor=none;collapsible=0;dropTarget=0;points=[[0,0.5],[1,0.5]];portConstraint=eastwest;top=0;left=0;right=0;bottom=1;" vertex="1" parent="CmbAMu_F5Y379cviq5Td-167">
          <mxGeometry y="30" width="180" height="30" as="geometry" />
        </mxCell>
        <mxCell id="CmbAMu_F5Y379cviq5Td-169" value="PK" style="shape=partialRectangle;connectable=0;fillColor=none;top=0;left=0;bottom=0;right=0;fontStyle=1;overflow=hidden;whiteSpace=wrap;html=1;" vertex="1" parent="CmbAMu_F5Y379cviq5Td-168">
          <mxGeometry width="30" height="30" as="geometry">
            <mxRectangle width="30" height="30" as="alternateBounds" />
          </mxGeometry>
        </mxCell>
        <mxCell id="CmbAMu_F5Y379cviq5Td-170" value="UniqueID" style="shape=partialRectangle;connectable=0;fillColor=none;top=0;left=0;bottom=0;right=0;align=left;spacingLeft=6;fontStyle=5;overflow=hidden;whiteSpace=wrap;html=1;" vertex="1" parent="CmbAMu_F5Y379cviq5Td-168">
          <mxGeometry x="30" width="150" height="30" as="geometry">
            <mxRectangle width="150" height="30" as="alternateBounds" />
          </mxGeometry>
        </mxCell>
        <mxCell id="CmbAMu_F5Y379cviq5Td-171" value="" style="shape=tableRow;horizontal=0;startSize=0;swimlaneHead=0;swimlaneBody=0;fillColor=none;collapsible=0;dropTarget=0;points=[[0,0.5],[1,0.5]];portConstraint=eastwest;top=0;left=0;right=0;bottom=0;" vertex="1" parent="CmbAMu_F5Y379cviq5Td-167">
          <mxGeometry y="60" width="180" height="30" as="geometry" />
        </mxCell>
        <mxCell id="CmbAMu_F5Y379cviq5Td-172" value="" style="shape=partialRectangle;connectable=0;fillColor=none;top=0;left=0;bottom=0;right=0;editable=1;overflow=hidden;whiteSpace=wrap;html=1;" vertex="1" parent="CmbAMu_F5Y379cviq5Td-171">
          <mxGeometry width="30" height="30" as="geometry">
            <mxRectangle width="30" height="30" as="alternateBounds" />
          </mxGeometry>
        </mxCell>
        <mxCell id="CmbAMu_F5Y379cviq5Td-173" value="Row 1" style="shape=partialRectangle;connectable=0;fillColor=none;top=0;left=0;bottom=0;right=0;align=left;spacingLeft=6;overflow=hidden;whiteSpace=wrap;html=1;" vertex="1" parent="CmbAMu_F5Y379cviq5Td-171">
          <mxGeometry x="30" width="150" height="30" as="geometry">
            <mxRectangle width="150" height="30" as="alternateBounds" />
          </mxGeometry>
        </mxCell>
        <mxCell id="CmbAMu_F5Y379cviq5Td-174" value="" style="shape=tableRow;horizontal=0;startSize=0;swimlaneHead=0;swimlaneBody=0;fillColor=none;collapsible=0;dropTarget=0;points=[[0,0.5],[1,0.5]];portConstraint=eastwest;top=0;left=0;right=0;bottom=0;" vertex="1" parent="CmbAMu_F5Y379cviq5Td-167">
          <mxGeometry y="90" width="180" height="30" as="geometry" />
        </mxCell>
        <mxCell id="CmbAMu_F5Y379cviq5Td-175" value="" style="shape=partialRectangle;connectable=0;fillColor=none;top=0;left=0;bottom=0;right=0;editable=1;overflow=hidden;whiteSpace=wrap;html=1;" vertex="1" parent="CmbAMu_F5Y379cviq5Td-174">
          <mxGeometry width="30" height="30" as="geometry">
            <mxRectangle width="30" height="30" as="alternateBounds" />
          </mxGeometry>
        </mxCell>
        <mxCell id="CmbAMu_F5Y379cviq5Td-176" value="Row 2" style="shape=partialRectangle;connectable=0;fillColor=none;top=0;left=0;bottom=0;right=0;align=left;spacingLeft=6;overflow=hidden;whiteSpace=wrap;html=1;" vertex="1" parent="CmbAMu_F5Y379cviq5Td-174">
          <mxGeometry x="30" width="150" height="30" as="geometry">
            <mxRectangle width="150" height="30" as="alternateBounds" />
          </mxGeometry>
        </mxCell>
        <mxCell id="CmbAMu_F5Y379cviq5Td-177" value="" style="shape=tableRow;horizontal=0;startSize=0;swimlaneHead=0;swimlaneBody=0;fillColor=none;collapsible=0;dropTarget=0;points=[[0,0.5],[1,0.5]];portConstraint=eastwest;top=0;left=0;right=0;bottom=0;" vertex="1" parent="CmbAMu_F5Y379cviq5Td-167">
          <mxGeometry y="120" width="180" height="30" as="geometry" />
        </mxCell>
        <mxCell id="CmbAMu_F5Y379cviq5Td-178" value="" style="shape=partialRectangle;connectable=0;fillColor=none;top=0;left=0;bottom=0;right=0;editable=1;overflow=hidden;whiteSpace=wrap;html=1;" vertex="1" parent="CmbAMu_F5Y379cviq5Td-177">
          <mxGeometry width="30" height="30" as="geometry">
            <mxRectangle width="30" height="30" as="alternateBounds" />
          </mxGeometry>
        </mxCell>
        <mxCell id="CmbAMu_F5Y379cviq5Td-179" value="Row 3" style="shape=partialRectangle;connectable=0;fillColor=none;top=0;left=0;bottom=0;right=0;align=left;spacingLeft=6;overflow=hidden;whiteSpace=wrap;html=1;" vertex="1" parent="CmbAMu_F5Y379cviq5Td-177">
          <mxGeometry x="30" width="150" height="30" as="geometry">
            <mxRectangle width="150" height="30" as="alternateBounds" />
          </mxGeometry>
        </mxCell>
      </root>
    </mxGraphModel>
  </diagram>
</mxfile>
